<svg xmlns="http://www.w3.org/2000/svg" version="1.1" xmlns:xlink="http://www.w3.org/1999/xlink" xmlns:svgjs="http://svgjs.dev/svgjs" width="100%" height="100%" viewBox="0 0 1000 600"><rect width="1000" height="600" x="0" y="0" fill="#072c50"/><g><circle r="166.66666666666666" cx="349.20852152506507" cy="371.4307585885397" fill="#b88746" transform="matrix(0.6847744368025293,0,0,0.6847744368025293,0,45.65370467686415)"/><path d="M357.9387489304497 371.44327549666207L357.9387489304497 371.44327549666207Q357.9387489304497 357.05526623619113 352.99287074716284 344.36584140230354Q348.04699256387596 331.676416568416 338.8796324968745 322.1593479430003Q329.68729324712916 312.6173001348408 316.92293086501 307.22179666216414Q304.1585684828908 301.82629318948756 288.3217666232752 301.82629318948756L288.3217666232752 301.82629318948756Q272.5099439464035 301.82629318948756 259.7455815642843 307.22179666216414Q246.95623999942123 312.6173001348408 237.78887993241977 322.1593479430003Q228.62151986541832 331.676416568416 223.6756416821314 344.36584140230354Q218.72976349884453 357.05526623619113 218.72976349884453 371.44327549666207L218.72976349884453 371.44327549666207Q218.72976349884453 385.831284757133 223.6756416821314 398.49573040827676Q228.62151986541832 411.1851552421643 237.78887993241977 420.70222386757996Q246.95623999942123 430.2442716757395 259.7455815642843 435.63977514841616Q272.5099439464035 441.03527862109274 288.3217666232752 441.03527862109274L288.3217666232752 441.03527862109274Q304.1585684828908 441.03527862109274 316.92293086501 435.63977514841616Q329.68729324712916 430.2442716757395 338.8796324968745 420.70222386757996Q348.04699256387596 411.1851552421643 352.99287074716284 398.49573040827676Q357.9387489304497 385.831284757133 357.9387489304497 371.44327549666207ZM346.0736371271099 371.44327549666207L346.0736371271099 371.44327549666207Q346.0736371271099 355.4316193578394 339.0544867760816 342.39248596553756Q332.0353364250533 329.3533525732358 319.09611976372696 321.60980592263513Q306.13192391965674 313.8912384547783 288.3217666232752 313.8912384547783L288.3217666232752 313.8912384547783Q270.7114427888446 313.8912384547783 257.6723093965428 321.60980592263513Q244.63317600424102 329.3533525732358 237.61402565321265 342.39248596553756Q230.5948753021843 355.4316193578394 230.5948753021843 371.44327549666207L230.5948753021843 371.44327549666207Q230.5948753021843 387.2550981735338 237.61402565321265 400.39414829681107Q244.63317600424102 413.5082192373445 257.6723093965428 421.25176588794517Q270.7114427888446 428.9953125385459 288.3217666232752 428.9953125385459L288.3217666232752 428.9953125385459Q306.13192391965674 428.9953125385459 319.09611976372696 421.25176588794517Q332.0353364250533 413.5082192373445 339.0544867760816 400.39414829681107Q346.0736371271099 387.2550981735338 346.0736371271099 371.44327549666207ZM334.18354614102634 371.44327549666207L334.18354614102634 371.44327549666207Q334.18354614102634 358.85376739375 328.7880426683497 348.51238573778653Q323.3925391956731 338.171004081823 313.15107427068517 331.9511875785986Q302.90960934569716 325.75635025811806 288.3217666232752 325.75635025811806L288.3217666232752 325.75635025811806Q273.9337573628043 325.75635025811806 263.59237570684076 331.9511875785986Q253.25099405087727 338.171004081823 247.85549057820066 348.51238573778653Q242.45998710552405 358.85376739375 242.45998710552405 371.44327549666207L242.45998710552405 371.44327549666207Q242.45998710552405 384.03278359957415 247.85549057820066 394.37416525553766Q253.25099405087727 404.7155469115011 263.59237570684076 410.9103842319817Q273.9337573628043 417.10522155246224 288.3217666232752 417.10522155246224L288.3217666232752 417.10522155246224Q302.90960934569716 417.10522155246224 313.15107427068517 410.9103842319817Q323.3925391956731 404.7155469115011 328.7880426683497 394.37416525553766Q334.18354614102634 384.03278359957415 334.18354614102634 371.44327549666207ZM288.3217666232752 422.70055848708984L288.3217666232752 422.70055848708984Q272.33508966719637 422.70055848708984 260.8196864222708 415.7563456842931Q249.3042831773453 408.8371120642402 243.18438340509636 397.14685454010754Q237.06448363284744 385.4565970159749 237.06448363284744 371.44327549666207L237.06448363284744 371.44327549666207Q237.06448363284744 357.23012051539826 243.18438340509636 345.61480053949725Q249.3042831773453 334.0244597463401 260.8196864222708 327.1052261262872Q272.33508966719637 320.18599250623436 288.3217666232752 320.18599250623436L288.3217666232752 320.18599250623436Q304.33342276209794 320.18599250623436 315.84882600702343 327.1052261262872Q327.3642292519489 334.0244597463401 333.48412902419784 345.61480053949725Q339.579049613703 357.23012051539826 339.579049613703 371.44327549666207L339.579049613703 371.44327549666207Q339.579049613703 385.4565970159749 333.48412902419784 397.14685454010754Q327.3642292519489 408.8371120642402 315.84882600702343 415.7563456842931Q304.33342276209794 422.70055848708984 288.3217666232752 422.70055848708984ZM288.3217666232752 434.5656702904296L288.3217666232752 434.5656702904296Q273.9337573628043 434.5656702904296 262.3434165696471 429.6197921071427Q250.75307577648994 424.6739139238558 242.38504955729243 416.03111669447566Q234.01702333809493 407.41329864783944 229.62068717517326 395.9728329511455Q225.1993718295077 384.55734643719546 225.1993718295077 371.44327549666207L225.1993718295077 371.44327549666207Q225.1993718295077 358.3042253733848 229.62068717517326 346.88873885943474Q234.01702333809493 335.4732523454847 242.38504955729243 326.7305383851291Q250.75307577648994 318.01280360751736 262.3434165696471 313.166842155206Q273.9337573628043 308.2959015201507 288.3217666232752 308.2959015201507L288.3217666232752 308.2959015201507Q302.70977588374615 308.2959015201507 314.32509585964715 313.166842155206Q325.9154366528043 318.01280360751736 334.2834628720018 326.7305383851291Q342.6514890911993 335.4732523454847 347.047825254121 346.88873885943474Q351.46914059978656 358.3042253733848 351.46914059978656 371.44327549666207L351.46914059978656 371.44327549666207Q351.46914059978656 384.55734643719546 347.047825254121 395.9728329511455Q342.6514890911993 407.41329864783944 334.2834628720018 416.03111669447566Q325.9154366528043 424.6739139238558 314.32509585964715 429.6197921071427Q302.70977588374615 434.5656702904296 288.3217666232752 434.5656702904296ZM288.3217666232752 446.4307820937693L288.3217666232752 446.4307820937693Q271.43583908841697 446.4307820937693 257.6723093965428 440.585653331703Q243.9087797046687 434.7405245696367 234.01702333809493 424.4990596446487Q224.12526697152114 414.23261553691685 218.72976349884453 400.6689193069937Q213.33426002616793 387.08024389432666 213.33426002616793 371.44327549666207L213.33426002616793 371.44327549666207Q213.33426002616793 355.7813279162536 218.72976349884453 342.2176316863305Q224.12526697152114 328.62895627366345 234.01702333809493 318.38749134867544Q243.9087797046687 308.1210472409436 257.6723093965428 302.27591847887726Q271.43583908841697 296.430789716811 288.3217666232752 296.430789716811L288.3217666232752 296.430789716811Q305.23267334087734 296.430789716811 318.9962030327515 302.27591847887726Q332.75973272462556 308.1210472409436 342.6514890911993 318.38749134867544Q352.54324545777314 328.62895627366345 357.9387489304497 342.2176316863305Q363.33425240312636 355.7813279162536 363.33425240312636 371.44327549666207L363.33425240312636 371.44327549666207Q363.33425240312636 387.08024389432666 357.9387489304497 400.6689193069937Q352.54324545777314 414.23261553691685 342.6514890911993 424.4990596446487Q332.75973272462556 434.7405245696367 318.9962030327515 440.585653331703Q305.23267334087734 446.4307820937693 288.3217666232752 446.4307820937693ZM406.84798874295336 443.733030357431L401.4524852702768 443.733030357431L401.4524852702768 299.12854145314924L406.84798874295336 299.12854145314924L406.84798874295336 443.733030357431ZM383.1177651362739 443.733030357431L377.72226166359724 443.733030357431L377.72226166359724 299.12854145314924L383.1177651362739 299.12854145314924L383.1177651362739 443.733030357431ZM394.9828769396136 443.733030357431L389.58737346693704 443.733030357431L389.58737346693704 299.12854145314924L394.9828769396136 299.12854145314924L394.9828769396136 443.733030357431ZM485.08278909676415 304.5240449258259L413.3175970736165 304.5240449258259L413.3175970736165 299.12854145314924L485.08278909676415 299.12854145314924L485.08278909676415 304.5240449258259ZM485.08278909676415 316.3891567291656L413.3175970736165 316.3891567291656L413.3175970736165 310.993653256489L485.08278909676415 310.993653256489L485.08278909676415 316.3891567291656ZM485.08278909676415 328.27924771524926L413.3175970736165 328.27924771524926L413.3175970736165 322.8837442425726L485.08278909676415 322.8837442425726L485.08278909676415 328.27924771524926ZM474.84132417177625 362.25093624691675L413.3175970736165 362.25093624691675L413.3175970736165 356.85543277424017L474.84132417177625 356.85543277424017L474.84132417177625 362.25093624691675ZM474.84132417177625 374.1410272330004L413.3175970736165 374.1410272330004L413.3175970736165 368.7455237603238L474.84132417177625 368.7455237603238L474.84132417177625 374.1410272330004ZM474.84132417177625 386.00613903634013L413.3175970736165 386.00613903634013L413.3175970736165 380.61063556366355L474.84132417177625 380.61063556366355L474.84132417177625 386.00613903634013Z " fill="#072c50" transform="matrix(0.6847744368025293,0,0,0.6847744368025293,0,45.65370467686415)"/><path d="M743.8130165085747 371.44327549666207L743.8130165085747 371.44327549666207Q743.8130165085747 357.05526623619113 738.8671383252878 344.36584140230354Q733.921260142001 331.676416568416 724.7539000749995 322.1593479430003Q715.5615608252541 312.6173001348408 702.797198443135 307.22179666216414Q690.0328360610158 301.82629318948756 674.1960342014002 301.82629318948756L674.1960342014002 301.82629318948756Q658.3842115245285 301.82629318948756 645.6198491424093 307.22179666216414Q632.8305075775462 312.6173001348408 623.6631475105448 322.1593479430003Q614.4957874435433 331.676416568416 609.5499092602564 344.36584140230354Q604.6040310769695 357.05526623619113 604.6040310769695 371.44327549666207L604.6040310769695 371.44327549666207Q604.6040310769695 385.831284757133 609.5499092602564 398.49573040827676Q614.4957874435433 411.1851552421643 623.6631475105448 420.70222386757996Q632.8305075775462 430.2442716757395 645.6198491424093 435.63977514841616Q658.3842115245285 441.03527862109274 674.1960342014002 441.03527862109274L674.1960342014002 441.03527862109274Q690.0328360610158 441.03527862109274 702.797198443135 435.63977514841616Q715.5615608252541 430.2442716757395 724.7539000749995 420.70222386757996Q733.921260142001 411.1851552421643 738.8671383252878 398.49573040827676Q743.8130165085747 385.831284757133 743.8130165085747 371.44327549666207ZM731.9479047052349 371.44327549666207L731.9479047052349 371.44327549666207Q731.9479047052349 355.4316193578394 724.9287543542066 342.39248596553756Q717.9096040031783 329.3533525732358 704.970387341852 321.60980592263513Q692.0061914977817 313.8912384547783 674.1960342014002 313.8912384547783L674.1960342014002 313.8912384547783Q656.5857103669696 313.8912384547783 643.5465769746678 321.60980592263513Q630.507443582366 329.3533525732358 623.4882932313376 342.39248596553756Q616.4691428803093 355.4316193578394 616.4691428803093 371.44327549666207L616.4691428803093 371.44327549666207Q616.4691428803093 387.2550981735338 623.4882932313376 400.39414829681107Q630.507443582366 413.5082192373445 643.5465769746678 421.25176588794517Q656.5857103669696 428.9953125385459 674.1960342014002 428.9953125385459L674.1960342014002 428.9953125385459Q692.0061914977817 428.9953125385459 704.970387341852 421.25176588794517Q717.9096040031783 413.5082192373445 724.9287543542066 400.39414829681107Q731.9479047052349 387.2550981735338 731.9479047052349 371.44327549666207ZM720.0578137191513 371.44327549666207L720.0578137191513 371.44327549666207Q720.0578137191513 358.85376739375 714.6623102464747 348.51238573778653Q709.2668067737981 338.171004081823 699.0253418488102 331.9511875785986Q688.7838769238222 325.75635025811806 674.1960342014002 325.75635025811806L674.1960342014002 325.75635025811806Q659.8080249409293 325.75635025811806 649.4666432849658 331.9511875785986Q639.1252616290022 338.171004081823 633.7297581563257 348.51238573778653Q628.3342546836491 358.85376739375 628.3342546836491 371.44327549666207L628.3342546836491 371.44327549666207Q628.3342546836491 384.03278359957415 633.7297581563257 394.37416525553766Q639.1252616290022 404.7155469115011 649.4666432849658 410.9103842319817Q659.8080249409293 417.10522155246224 674.1960342014002 417.10522155246224L674.1960342014002 417.10522155246224Q688.7838769238222 417.10522155246224 699.0253418488102 410.9103842319817Q709.2668067737981 404.7155469115011 714.6623102464747 394.37416525553766Q720.0578137191513 384.03278359957415 720.0578137191513 371.44327549666207ZM674.1960342014002 422.70055848708984L674.1960342014002 422.70055848708984Q658.2093572453214 422.70055848708984 646.6939540003958 415.7563456842931Q635.1785507554703 408.8371120642402 629.0586509832214 397.14685454010754Q622.9387512109724 385.4565970159749 622.9387512109724 371.44327549666207L622.9387512109724 371.44327549666207Q622.9387512109724 357.23012051539826 629.0586509832214 345.61480053949725Q635.1785507554703 334.0244597463401 646.6939540003958 327.1052261262872Q658.2093572453214 320.18599250623436 674.1960342014002 320.18599250623436L674.1960342014002 320.18599250623436Q690.2076903402229 320.18599250623436 701.7230935851484 327.1052261262872Q713.2384968300739 334.0244597463401 719.3583966023228 345.61480053949725Q725.453317191828 357.23012051539826 725.453317191828 371.44327549666207L725.453317191828 371.44327549666207Q725.453317191828 385.4565970159749 719.3583966023228 397.14685454010754Q713.2384968300739 408.8371120642402 701.7230935851484 415.7563456842931Q690.2076903402229 422.70055848708984 674.1960342014002 422.70055848708984ZM674.1960342014002 434.5656702904296L674.1960342014002 434.5656702904296Q659.8080249409293 434.5656702904296 648.2176841477722 429.6197921071427Q636.6273433546149 424.6739139238558 628.2593171354174 416.03111669447566Q619.89129091622 407.41329864783944 615.4949547532983 395.9728329511455Q611.0736394076328 384.55734643719546 611.0736394076328 371.44327549666207L611.0736394076328 371.44327549666207Q611.0736394076328 358.3042253733848 615.4949547532983 346.88873885943474Q619.89129091622 335.4732523454847 628.2593171354174 326.7305383851291Q636.6273433546149 318.01280360751736 648.2176841477722 313.166842155206Q659.8080249409293 308.2959015201507 674.1960342014002 308.2959015201507L674.1960342014002 308.2959015201507Q688.5840434618711 308.2959015201507 700.1993634377721 313.166842155206Q711.7897042309293 318.01280360751736 720.1577304501268 326.7305383851291Q728.5257566693243 335.4732523454847 732.922092832246 346.88873885943474Q737.3434081779116 358.3042253733848 737.3434081779116 371.44327549666207L737.3434081779116 371.44327549666207Q737.3434081779116 384.55734643719546 732.922092832246 395.9728329511455Q728.5257566693243 407.41329864783944 720.1577304501268 416.03111669447566Q711.7897042309293 424.6739139238558 700.1993634377721 429.6197921071427Q688.5840434618711 434.5656702904296 674.1960342014002 434.5656702904296ZM674.1960342014002 446.4307820937693L674.1960342014002 446.4307820937693Q657.310106666542 446.4307820937693 643.5465769746678 440.585653331703Q629.7830472827936 434.7405245696367 619.89129091622 424.4990596446487Q609.9995345496461 414.23261553691685 604.6040310769695 400.6689193069937Q599.208527604293 387.08024389432666 599.208527604293 371.44327549666207L599.208527604293 371.44327549666207Q599.208527604293 355.7813279162536 604.6040310769695 342.2176316863305Q609.9995345496461 328.62895627366345 619.89129091622 318.38749134867544Q629.7830472827936 308.1210472409436 643.5465769746678 302.27591847887726Q657.310106666542 296.430789716811 674.1960342014002 296.430789716811L674.1960342014002 296.430789716811Q691.1069409190023 296.430789716811 704.8704706108764 302.27591847887726Q718.6340003027506 308.1210472409436 728.5257566693243 318.38749134867544Q738.4175130358981 328.62895627366345 743.8130165085747 342.2176316863305Q749.2085199812514 355.7813279162536 749.2085199812514 371.44327549666207L749.2085199812514 371.44327549666207Q749.2085199812514 387.08024389432666 743.8130165085747 400.6689193069937Q738.4175130358981 414.23261553691685 728.5257566693243 424.4990596446487Q718.6340003027506 434.7405245696367 704.8704706108764 440.585653331703Q691.1069409190023 446.4307820937693 674.1960342014002 446.4307820937693ZM811.2568099170322 443.733030357431L773.6631398875032 443.733030357431L773.6631398875032 371.44327549666207L779.0586433601798 371.44327549666207L779.0586433601798 426.4724150814147L811.2568099170322 426.4724150814147L811.2568099170322 431.8679185540913L779.0586433601798 431.8679185540913L779.0586433601798 438.3375268847544L811.2568099170322 438.3375268847544L811.2568099170322 443.733030357431ZM767.19353155684 443.733030357431L761.7980280841634 443.733030357431L761.7980280841634 371.44327549666207L767.19353155684 371.44327549666207L767.19353155684 443.733030357431ZM850.9986896625345 443.733030357431L833.0136780869458 443.733030357431L833.0136780869458 371.44327549666207L850.9986896625345 371.44327549666207L850.9986896625345 371.44327549666207Q862.3392386282529 371.6181297758692 870.9570566748891 376.2892369489735Q879.5998539042693 380.96034412207774 884.5457320875562 389.0535993310927Q889.4916102708431 397.14685454010754 889.4916102708431 407.58815292704656L889.4916102708431 407.58815292704656Q889.4916102708431 418.0044721312417 884.5457320875562 426.1976440712321Q879.5998539042693 434.3908160112225 870.8821191266576 439.06192318432676Q862.139405166302 443.733030357431 850.9986896625345 443.733030357431L850.9986896625345 443.733030357431L850.9986896625345 443.733030357431ZM826.5440697562827 443.733030357431L821.1485662836061 443.733030357431L821.1485662836061 371.44327549666207L826.5440697562827 371.44327549666207L826.5440697562827 443.733030357431ZM850.4491476421692 376.8387789693387L850.4491476421692 376.8387789693387L838.4091815596224 376.8387789693387L838.4091815596224 383.3083873000018L850.9986896625345 383.3083873000018L850.9986896625345 383.3083873000018Q862.8638014658742 383.48324157920894 870.2326603753169 390.1277041890792Q877.6264984675032 396.79714598169335 877.6264984675032 407.58815292704656L877.6264984675032 407.58815292704656Q877.6264984675032 418.55401415160685 870.1577228270852 425.19847676147714Q862.6889471866672 431.8679185540913 850.9986896625345 431.8679185540913L850.9986896625345 431.8679185540913L850.9986896625345 431.8679185540913L838.4091815596224 431.8679185540913L838.4091815596224 438.3375268847544L850.4491476421692 438.3375268847544Q860.5407374706941 438.3375268847544 868.0844506593438 434.4657535594541Q875.6281638479934 430.5939802341538 879.8746249144518 423.59980906586924Q884.0961067981665 416.5806587148409 884.0961067981665 407.58815292704656L884.0961067981665 407.58815292704656Q884.0961067981665 398.4207928600451 879.8746249144518 391.4765800572484Q875.6281638479934 384.55734643719546 868.0844506593438 380.68557311189517Q860.5407374706941 376.8387789693387 850.4491476421692 376.8387789693387ZM850.4491476421692 388.70389077267845L850.4491476421692 388.70389077267845L838.4091815596224 388.70389077267845L838.4091815596224 426.4724150814147L850.4491476421692 426.4724150814147Q860.5407374706941 426.4724150814147 866.3858662327603 421.4266201671523Q872.2309949948267 416.4058044356338 872.2309949948267 407.58815292704656L872.2309949948267 407.58815292704656Q872.2309949948267 398.77050141845933 866.3858662327603 393.72470650419694Q860.5407374706941 388.70389077267845 850.4491476421692 388.70389077267845ZM953.688109922597 422.70055848708984L953.688109922597 422.70055848708984Q940.923747540478 422.70055848708984 932.655638052256 417.75468030380296Q924.3875285640339 412.8088021205161 923.6631322644615 404.51571344955016L923.6631322644615 404.51571344955016L928.8837814579309 403.0919000331494Q928.8837814579309 409.2117998053983 935.8030150779839 413.2584274099058Q942.7222486980369 417.3050550144132 953.688109922597 417.3050550144132L953.688109922597 417.3050550144132Q965.0286588883156 417.3050550144132 972.1227467875755 413.15851067893027Q979.2418138695795 409.01196634344734 979.2418138695795 402.5423580127842L979.2418138695795 402.5423580127842Q979.2418138695795 396.42245824053526 973.2967683765374 392.6506016462104Q967.3517228834957 388.8787450518856 957.1102579585078 386.00613903634013L957.1102579585078 386.00613903634013L945.9695424547402 382.75884527963666Q923.6631322644615 376.2892369489735 912.3225832987431 366.3974805823997Q901.0070135157686 356.5057242158259 901.0070135157686 339.24510893980954L901.0070135157686 339.24510893980954Q901.0070135157686 326.83045511610464 907.9262471358214 317.21346975971346Q914.8454807558743 307.5964844033223 926.8105092901895 302.0011474686946Q938.7755378245048 296.430789716811 953.8629642018042 296.430789716811L953.8629642018042 296.430789716811Q967.5515563454468 296.430789716811 978.5923551182386 300.8521050624765Q989.6581330737744 305.2484412253982 996.9520544349854 313.34169643441305Q1004.2209966134525 321.434951643428 1006.2193312329624 332.2259585887812L1006.2193312329624 332.2259585887812L1000.9986820394928 333.67475118792584Q999.3750351611412 324.1327033797663 992.905426830478 316.93869874953083Q986.4358184998149 309.74469411929533 976.34422867129 305.79798324576336Q966.2776180255092 301.82629318948756 953.8629642018042 301.82629318948756L953.8629642018042 301.82629318948756Q940.1993512409056 301.82629318948756 929.5082610265277 306.77217137277444Q918.7921916294063 311.7180495560613 912.5973543089257 320.18599250623436Q906.4025169884452 328.62895627366345 906.4025169884452 339.5948174982238L906.4025169884452 339.5948174982238Q906.4025169884452 354.3575144998528 916.7438986444087 363.25010355667166Q927.0852803003721 372.1426926134905 947.3933558711411 377.7380295481181L947.3933558711411 377.7380295481181L958.5590505576524 380.7854898428706Q970.9487251986135 384.20763787878127 977.7930212704347 389.0535993310927Q984.637317342256 393.92453996614796 984.637317342256 402.19264945437L984.637317342256 402.19264945437Q984.637317342256 411.3600095213714 976.1693743920829 417.0302840042306Q967.7264106246538 422.70055848708984 953.688109922597 422.70055848708984ZM953.688109922597 434.5656702904296L953.688109922597 434.5656702904296Q936.777203204995 434.5656702904296 925.361716691045 427.0968946500115Q913.9462301770949 419.62811900959343 911.9728747403288 407.58815292704656L911.9728747403288 407.58815292704656L917.3683782130055 406.1393603279019Q918.7921916294063 416.5806587148409 928.6090104477485 422.87541276629696Q938.4008500833467 429.170166817753 953.688109922597 429.170166817753L953.688109922597 429.170166817753Q964.8538046091084 429.170166817753 973.2967683765374 425.74801878184235Q981.7397321439668 422.3258707459317 986.4358184998149 416.20597097368284Q991.1069256729191 410.11105038417776 991.1069256729191 402.19264945437L991.1069256729191 402.19264945437Q991.1069256729191 391.22678822980964 982.8388161846971 384.8321174473781Q974.5457275137311 378.43744666494655 959.9828639740532 374.4907357914146L959.9828639740532 374.4907357914146L949.0170027494928 371.44327549666207Q931.5815331942694 366.5723348616068 922.2143396653169 359.20347595216424Q912.8721253191084 351.8346170427216 912.8721253191084 339.5948174982238L912.8721253191084 339.5948174982238Q912.8721253191084 330.4274574312223 918.1677120608094 323.40830708019394Q923.4882779852544 316.3891567291656 932.830492331463 312.34252912465814Q942.1727066776716 308.2959015201507 953.8629642018042 308.2959015201507L953.8629642018042 308.2959015201507Q964.8538046091084 308.2959015201507 973.5715393867201 311.6431120078297Q982.2892741643319 314.96534331276484 987.8596319162156 321.08524308501376Q993.4299896680993 327.18016367451884 994.7039279880369 335.27341888353374L994.7039279880369 335.27341888353374L989.3084245153603 336.72221148267835Q988.0344861954227 326.2809130957394 978.2426465598245 319.98615904428334Q968.4508069242262 313.6914049928273 953.8629642018042 313.6914049928273L953.8629642018042 313.6914049928273Q943.6214992768162 313.6914049928273 935.5282440678014 317.03861548050634Q927.4349888587864 320.3608467854415 922.8388192339138 326.20597554750776Q918.2676287917849 332.0511043095741 918.2676287917849 339.5948174982238L918.2676287917849 339.5948174982238Q918.2676287917849 349.8612616059557 926.4358215490315 355.7813279162536Q934.6289934890218 361.72637340929543 950.2659618866865 366.2226263031926L950.2659618866865 366.2226263031926L961.0569688320397 369.2700865979451Q977.7930212704347 373.9411937710494 987.1352356166433 381.58482369067457Q996.5024291455958 389.22845361029977 996.5024291455958 402.19264945437L996.5024291455958 402.19264945437Q996.5024291455958 411.70971807978566 991.1069256729191 419.0036394409966Q985.7114222002425 426.29756080220756 976.0944368438512 430.41912595494665Q966.4524723047163 434.5656702904296 953.688109922597 434.5656702904296ZM953.688109922597 446.4307820937693L953.688109922597 446.4307820937693Q939.6747884032842 446.4307820937693 928.4341561685413 442.03444593084765Q917.1935239337985 437.6131305851821 909.8996025725875 429.6197921071427Q902.6056812113765 421.6014744463594 900.4574714954034 410.6356132217991L900.4574714954034 410.6356132217991L905.6781206888728 409.2117998053983Q907.4766218464317 418.9037227100211 913.8463134461193 426.022789792025Q920.2409842285509 433.11687769128497 930.4824491535389 437.0885677475608Q940.7488932612708 441.03527862109274 953.688109922597 441.03527862109274L953.688109922597 441.03527862109274Q968.4508069242262 441.03527862109274 979.4916056970181 436.08940043780586Q990.557383652554 431.1435222545189 996.7772001557784 422.4257874769072Q1002.972037476259 413.7080526992955 1002.972037476259 402.19264945437L1002.972037476259 402.19264945437Q1002.972037476259 386.9053896151196 992.3558848101128 377.7380295481181Q981.7397321439668 368.5456902983728 962.5057614311844 362.9753325464891L962.5057614311844 362.9753325464891L951.8896087650381 359.9278722517366Q938.7755378245048 356.1560156574117 931.7563874734764 351.65976276351455Q924.7372371224482 347.16350986961737 924.7372371224482 339.5948174982238L924.7372371224482 339.5948174982238Q924.7372371224482 330.77716598963656 933.0053466106701 325.48157924793543Q941.2734560988921 320.18599250623436 953.8629642018042 320.18599250623436L953.8629642018042 320.18599250623436Q966.102763746302 320.18599250623436 974.0211646761098 325.20680823775285Q981.9395656059177 330.25260315201524 983.0136704639042 338.34585836103014L983.0136704639042 338.34585836103014L977.7930212704347 339.7696717774309Q977.4433127120205 333.4749177259749 970.8737876503818 329.5282068524429Q964.3042625887432 325.58149597891094 953.8629642018042 325.58149597891094L953.8629642018042 325.58149597891094Q943.9712078352305 325.58149597891094 937.0519742151776 329.3533525732358Q930.1327405951247 333.1252091675606 930.1327405951247 339.24510893980954L930.1327405951247 339.24510893980954Q930.1327405951247 344.8154666916933 936.5274113775562 348.2376147276039Q942.8971029772439 351.65976276351455 953.3384013641829 354.70722305826706L953.3384013641829 354.70722305826706L963.5798662891709 357.7546833530196Q985.3367344590844 364.2492708664266 996.85213770401 374.5906525223901Q1008.3675409489355 384.9320341783536 1008.3675409489355 402.5423580127842L1008.3675409489355 402.5423580127842Q1008.3675409489355 415.3067203949034 1001.4483073288826 425.29839349245265Q994.5290737088297 435.2900665900019 982.1893574333563 440.8604243418856Q969.874620340627 446.4307820937693 953.688109922597 446.4307820937693ZM1074.5623752201996 376.8387789693387L1015.3866912999639 376.8387789693387L1015.3866912999639 371.44327549666207L1074.5623752201996 371.44327549666207L1074.5623752201996 376.8387789693387ZM1041.6398123637746 443.733030357431L1036.244308891098 443.733030357431L1036.244308891098 388.70389077267845L1015.3866912999639 388.70389077267845L1015.3866912999639 383.3083873000018L1074.5623752201996 383.3083873000018L1074.5623752201996 388.70389077267845L1053.5049241671143 388.70389077267845L1053.5049241671143 443.733030357431L1048.1094206944376 443.733030357431L1048.1094206944376 388.70389077267845L1041.6398123637746 388.70389077267845L1041.6398123637746 443.733030357431ZM1083.5548810079936 416.75551299404805L1083.5548810079936 416.75551299404805L1083.5548810079936 371.44327549666207L1088.9503844806704 371.44327549666207L1088.9503844806704 416.5806587148409Q1088.9503844806704 428.0960619597665 1095.869618100723 434.1160450010399Q1102.7888517207762 440.1360280423133 1112.3308995289358 440.1360280423133L1112.3308995289358 440.1360280423133Q1121.8479681543513 440.1360280423133 1128.7672017744042 434.1160450010399Q1135.7114145772007 428.0960619597665 1135.7114145772007 416.5806587148409L1135.7114145772007 416.5806587148409L1135.7114145772007 371.44327549666207L1141.1069180498775 371.44327549666207L1141.1069180498775 416.75551299404805L1141.1069180498775 416.75551299404805Q1140.9070845879264 425.9228730610495 1137.0602904453701 432.317543843481Q1133.1885171200697 438.6872354431686 1126.7189087894067 442.10938347907927Q1120.2243212759995 445.5315315149899 1112.3308995289358 445.5315315149899L1112.3308995289358 445.5315315149899Q1104.412498599128 445.5315315149899 1097.8429735374893 442.10938347907927Q1091.2734484758507 438.6872354431686 1087.40167515055 432.2176271125055Q1083.5548810079936 425.74801878184235 1083.5548810079936 416.75551299404805L1083.5548810079936 416.75551299404805ZM1095.4199928113335 416.75551299404805L1095.4199928113335 416.75551299404805L1095.4199928113335 371.44327549666207L1100.81549628401 371.44327549666207L1100.81549628401 416.5806587148409Q1100.81549628401 422.70055848708984 1104.2376443199207 425.4732477716597Q1107.6348131730874 428.27091623897354 1112.3308995289358 428.27091623897354L1112.3308995289358 428.27091623897354Q1117.00200670204 428.27091623897354 1120.4241547379506 425.4732477716597Q1123.8213235911173 422.70055848708984 1123.8213235911173 416.5806587148409L1123.8213235911173 416.5806587148409L1123.8213235911173 371.44327549666207L1129.216827063794 371.44327549666207L1129.216827063794 416.75551299404805L1129.216827063794 416.75551299404805Q1129.0419727845867 425.19847676147714 1124.0960946013 429.4449378279356Q1119.1502164180129 433.6664197116501 1112.3308995289358 433.6664197116501L1112.3308995289358 433.6664197116501Q1105.4866034571144 433.6664197116501 1100.440808542852 429.3450210969601Q1095.4199928113335 425.02362248227 1095.4199928113335 416.75551299404805L1095.4199928113335 416.75551299404805ZM1172.7555425863648 443.733030357431L1167.3600391136883 443.733030357431L1167.3600391136883 371.44327549666207L1210.349212615894 371.44327549666207L1210.349212615894 376.8387789693387L1172.7555425863648 376.8387789693387L1172.7555425863648 383.3083873000018L1210.349212615894 383.3083873000018L1210.349212615894 388.70389077267845L1172.7555425863648 388.70389077267845L1172.7555425863648 398.94535569766646L1204.5790214020592 398.94535569766646L1204.5790214020592 404.3408591703431L1172.7555425863648 404.3408591703431L1172.7555425863648 410.8104675010062L1204.5790214020592 410.8104675010062L1204.5790214020592 416.20597097368284L1172.7555425863648 416.20597097368284L1172.7555425863648 443.733030357431ZM1160.8904307830253 443.733030357431L1155.4949273103484 443.733030357431L1155.4949273103484 371.44327549666207L1160.8904307830253 371.44327549666207L1160.8904307830253 443.733030357431ZM1240.1993359948224 443.733030357431L1234.803832522146 443.733030357431L1234.803832522146 371.44327549666207L1277.7930060243516 371.44327549666207L1277.7930060243516 376.8387789693387L1240.1993359948224 376.8387789693387L1240.1993359948224 383.3083873000018L1277.7930060243516 383.3083873000018L1277.7930060243516 388.70389077267845L1240.1993359948224 388.70389077267845L1240.1993359948224 398.94535569766646L1272.022814810517 398.94535569766646L1272.022814810517 404.3408591703431L1240.1993359948224 404.3408591703431L1240.1993359948224 410.8104675010062L1272.022814810517 410.8104675010062L1272.022814810517 416.20597097368284L1240.1993359948224 416.20597097368284L1240.1993359948224 443.733030357431ZM1228.334224191483 443.733030357431L1222.938720718806 443.733030357431L1222.938720718806 371.44327549666207L1228.334224191483 371.44327549666207L1228.334224191483 443.733030357431Z " fill="#b88746" transform="matrix(0.6847744368025293,0,0,0.6847744368025293,0,45.65370467686415)"/></g></svg>